<mxfile host="app.diagrams.net" modified="2023-09-25T06:50:20.720Z" agent="Mozilla/5.0 (Macintosh; Intel Mac OS X 10_15_7) AppleWebKit/537.36 (KHTML, like Gecko) Chrome/116.0.0.0 Safari/537.36" etag="KmjIfpzDIg_az0U9mybj" version="21.2.1" type="github">
  <diagram name="第 1 页" id="pwNHqA7L5wh-8GGMVhB-">
    <mxGraphModel dx="1095" dy="672" grid="1" gridSize="10" guides="1" tooltips="1" connect="1" arrows="1" fold="1" page="1" pageScale="1" pageWidth="827" pageHeight="1169" math="0" shadow="0">
      <root>
        <mxCell id="0" />
        <mxCell id="1" parent="0" />
        <mxCell id="VDtPEl2qfjK_g-uWMviU-2" value="Client" style="rounded=1;whiteSpace=wrap;html=1;" vertex="1" parent="1">
          <mxGeometry x="387.5" y="80" width="120" height="60" as="geometry" />
        </mxCell>
        <mxCell id="VDtPEl2qfjK_g-uWMviU-3" value="Server" style="rounded=1;whiteSpace=wrap;html=1;" vertex="1" parent="1">
          <mxGeometry x="100" y="80" width="120" height="60" as="geometry" />
        </mxCell>
        <mxCell id="VDtPEl2qfjK_g-uWMviU-5" value="Client" style="rounded=0;whiteSpace=wrap;html=1;" vertex="1" parent="1">
          <mxGeometry x="387.5" y="80" width="120" height="60" as="geometry" />
        </mxCell>
        <mxCell id="VDtPEl2qfjK_g-uWMviU-6" value="Server" style="rounded=0;whiteSpace=wrap;html=1;" vertex="1" parent="1">
          <mxGeometry x="100" y="80" width="120" height="60" as="geometry" />
        </mxCell>
        <mxCell id="VDtPEl2qfjK_g-uWMviU-8" value="" style="endArrow=none;dashed=1;html=1;rounded=0;entryX=0.5;entryY=1;entryDx=0;entryDy=0;" edge="1" parent="1" source="VDtPEl2qfjK_g-uWMviU-50" target="VDtPEl2qfjK_g-uWMviU-5">
          <mxGeometry width="50" height="50" relative="1" as="geometry">
            <mxPoint x="447.5" y="600" as="sourcePoint" />
            <mxPoint x="287.5" y="270" as="targetPoint" />
          </mxGeometry>
        </mxCell>
        <mxCell id="VDtPEl2qfjK_g-uWMviU-9" value="" style="endArrow=none;dashed=1;html=1;rounded=0;entryX=0.5;entryY=1;entryDx=0;entryDy=0;" edge="1" parent="1" target="VDtPEl2qfjK_g-uWMviU-6">
          <mxGeometry width="50" height="50" relative="1" as="geometry">
            <mxPoint x="160" y="600" as="sourcePoint" />
            <mxPoint x="210" y="270" as="targetPoint" />
          </mxGeometry>
        </mxCell>
        <mxCell id="VDtPEl2qfjK_g-uWMviU-15" value="" style="endArrow=none;html=1;rounded=0;" edge="1" parent="1">
          <mxGeometry width="50" height="50" relative="1" as="geometry">
            <mxPoint x="160" y="180" as="sourcePoint" />
            <mxPoint x="360" y="180" as="targetPoint" />
          </mxGeometry>
        </mxCell>
        <mxCell id="VDtPEl2qfjK_g-uWMviU-16" value="" style="endArrow=none;html=1;rounded=0;" edge="1" parent="1">
          <mxGeometry width="50" height="50" relative="1" as="geometry">
            <mxPoint x="360" y="220" as="sourcePoint" />
            <mxPoint x="360" y="180" as="targetPoint" />
          </mxGeometry>
        </mxCell>
        <mxCell id="VDtPEl2qfjK_g-uWMviU-17" value="" style="endArrow=classic;html=1;rounded=0;entryX=0.204;entryY=-0.095;entryDx=0;entryDy=0;entryPerimeter=0;" edge="1" parent="1" target="VDtPEl2qfjK_g-uWMviU-47">
          <mxGeometry width="50" height="50" relative="1" as="geometry">
            <mxPoint x="360" y="220" as="sourcePoint" />
            <mxPoint x="160" y="220" as="targetPoint" />
            <Array as="points">
              <mxPoint x="170" y="220" />
            </Array>
          </mxGeometry>
        </mxCell>
        <mxCell id="VDtPEl2qfjK_g-uWMviU-19" value="建立TCP_Socket" style="text;html=1;strokeColor=none;fillColor=none;align=center;verticalAlign=middle;whiteSpace=wrap;rounded=0;" vertex="1" parent="1">
          <mxGeometry x="200" y="150" width="110" height="30" as="geometry" />
        </mxCell>
        <mxCell id="VDtPEl2qfjK_g-uWMviU-21" value="成功" style="text;html=1;strokeColor=none;fillColor=none;align=center;verticalAlign=middle;whiteSpace=wrap;rounded=0;" vertex="1" parent="1">
          <mxGeometry x="225" y="190" width="60" height="30" as="geometry" />
        </mxCell>
        <mxCell id="VDtPEl2qfjK_g-uWMviU-26" value="" style="endArrow=none;html=1;rounded=0;" edge="1" parent="1">
          <mxGeometry width="50" height="50" relative="1" as="geometry">
            <mxPoint x="160" y="260" as="sourcePoint" />
            <mxPoint x="360" y="260" as="targetPoint" />
          </mxGeometry>
        </mxCell>
        <mxCell id="VDtPEl2qfjK_g-uWMviU-27" value="" style="endArrow=none;html=1;rounded=0;" edge="1" parent="1">
          <mxGeometry width="50" height="50" relative="1" as="geometry">
            <mxPoint x="360" y="300" as="sourcePoint" />
            <mxPoint x="360" y="260" as="targetPoint" />
          </mxGeometry>
        </mxCell>
        <mxCell id="VDtPEl2qfjK_g-uWMviU-28" value="" style="endArrow=classic;html=1;rounded=0;entryX=0.5;entryY=0;entryDx=0;entryDy=0;" edge="1" parent="1" target="VDtPEl2qfjK_g-uWMviU-47">
          <mxGeometry width="50" height="50" relative="1" as="geometry">
            <mxPoint x="360" y="300" as="sourcePoint" />
            <mxPoint x="160" y="300" as="targetPoint" />
          </mxGeometry>
        </mxCell>
        <mxCell id="VDtPEl2qfjK_g-uWMviU-29" value="成功" style="text;html=1;strokeColor=none;fillColor=none;align=center;verticalAlign=middle;whiteSpace=wrap;rounded=0;" vertex="1" parent="1">
          <mxGeometry x="225" y="270" width="60" height="30" as="geometry" />
        </mxCell>
        <mxCell id="VDtPEl2qfjK_g-uWMviU-30" value="設定Socket_option" style="text;html=1;strokeColor=none;fillColor=none;align=center;verticalAlign=middle;whiteSpace=wrap;rounded=0;" vertex="1" parent="1">
          <mxGeometry x="200" y="230" width="130" height="30" as="geometry" />
        </mxCell>
        <mxCell id="VDtPEl2qfjK_g-uWMviU-35" value="" style="endArrow=none;html=1;rounded=0;" edge="1" parent="1">
          <mxGeometry width="50" height="50" relative="1" as="geometry">
            <mxPoint x="160" y="340" as="sourcePoint" />
            <mxPoint x="360" y="340" as="targetPoint" />
          </mxGeometry>
        </mxCell>
        <mxCell id="VDtPEl2qfjK_g-uWMviU-36" value="" style="endArrow=none;html=1;rounded=0;" edge="1" parent="1">
          <mxGeometry width="50" height="50" relative="1" as="geometry">
            <mxPoint x="360" y="380" as="sourcePoint" />
            <mxPoint x="360" y="340" as="targetPoint" />
          </mxGeometry>
        </mxCell>
        <mxCell id="VDtPEl2qfjK_g-uWMviU-37" value="" style="endArrow=classic;html=1;rounded=0;entryX=0.797;entryY=0.087;entryDx=0;entryDy=0;entryPerimeter=0;" edge="1" parent="1" target="VDtPEl2qfjK_g-uWMviU-47">
          <mxGeometry width="50" height="50" relative="1" as="geometry">
            <mxPoint x="360" y="380" as="sourcePoint" />
            <mxPoint x="160" y="380" as="targetPoint" />
          </mxGeometry>
        </mxCell>
        <mxCell id="VDtPEl2qfjK_g-uWMviU-38" value="成功" style="text;html=1;strokeColor=none;fillColor=none;align=center;verticalAlign=middle;whiteSpace=wrap;rounded=0;" vertex="1" parent="1">
          <mxGeometry x="229.86" y="350" width="60" height="30" as="geometry" />
        </mxCell>
        <mxCell id="VDtPEl2qfjK_g-uWMviU-39" value="設定要監聽的ip_addr 和 port" style="text;html=1;strokeColor=none;fillColor=none;align=center;verticalAlign=middle;whiteSpace=wrap;rounded=0;" vertex="1" parent="1">
          <mxGeometry x="175" y="310" width="160" height="30" as="geometry" />
        </mxCell>
        <mxCell id="VDtPEl2qfjK_g-uWMviU-45" value="監聽" style="text;html=1;strokeColor=none;fillColor=none;align=center;verticalAlign=middle;whiteSpace=wrap;rounded=0;" vertex="1" parent="1">
          <mxGeometry x="350" y="400" width="60" height="30" as="geometry" />
        </mxCell>
        <mxCell id="VDtPEl2qfjK_g-uWMviU-46" value="" style="endArrow=classic;html=1;rounded=0;entryX=0.058;entryY=1.066;entryDx=0;entryDy=0;entryPerimeter=0;" edge="1" parent="1" target="VDtPEl2qfjK_g-uWMviU-50">
          <mxGeometry width="50" height="50" relative="1" as="geometry">
            <mxPoint x="160" y="430" as="sourcePoint" />
            <mxPoint x="620" y="430" as="targetPoint" />
          </mxGeometry>
        </mxCell>
        <mxCell id="VDtPEl2qfjK_g-uWMviU-47" value="" style="rounded=0;whiteSpace=wrap;html=1;rotation=90;" vertex="1" parent="1">
          <mxGeometry x="25" y="295" width="270" height="10" as="geometry" />
        </mxCell>
        <mxCell id="VDtPEl2qfjK_g-uWMviU-51" value="" style="endArrow=none;dashed=1;html=1;rounded=0;" edge="1" parent="1" target="VDtPEl2qfjK_g-uWMviU-50">
          <mxGeometry width="50" height="50" relative="1" as="geometry">
            <mxPoint x="448" y="730" as="sourcePoint" />
            <mxPoint x="440" y="508" as="targetPoint" />
          </mxGeometry>
        </mxCell>
        <mxCell id="VDtPEl2qfjK_g-uWMviU-50" value="" style="rounded=0;whiteSpace=wrap;html=1;rotation=90;" vertex="1" parent="1">
          <mxGeometry x="336.25" y="523.75" width="222.5" height="10" as="geometry" />
        </mxCell>
        <mxCell id="VDtPEl2qfjK_g-uWMviU-56" value="" style="endArrow=none;html=1;rounded=0;" edge="1" parent="1">
          <mxGeometry width="50" height="50" relative="1" as="geometry">
            <mxPoint x="453.5" y="450" as="sourcePoint" />
            <mxPoint x="653.5" y="450" as="targetPoint" />
          </mxGeometry>
        </mxCell>
        <mxCell id="VDtPEl2qfjK_g-uWMviU-57" value="" style="endArrow=none;html=1;rounded=0;" edge="1" parent="1">
          <mxGeometry width="50" height="50" relative="1" as="geometry">
            <mxPoint x="653.5" y="490" as="sourcePoint" />
            <mxPoint x="653.5" y="450" as="targetPoint" />
          </mxGeometry>
        </mxCell>
        <mxCell id="VDtPEl2qfjK_g-uWMviU-58" value="" style="endArrow=classic;html=1;rounded=0;entryX=0.328;entryY=0.003;entryDx=0;entryDy=0;entryPerimeter=0;" edge="1" parent="1" target="VDtPEl2qfjK_g-uWMviU-50">
          <mxGeometry width="50" height="50" relative="1" as="geometry">
            <mxPoint x="653.5" y="490" as="sourcePoint" />
            <mxPoint x="458.5" y="490" as="targetPoint" />
          </mxGeometry>
        </mxCell>
        <mxCell id="VDtPEl2qfjK_g-uWMviU-59" value="成功" style="text;html=1;strokeColor=none;fillColor=none;align=center;verticalAlign=middle;whiteSpace=wrap;rounded=0;" vertex="1" parent="1">
          <mxGeometry x="518.5" y="460" width="60" height="30" as="geometry" />
        </mxCell>
        <mxCell id="VDtPEl2qfjK_g-uWMviU-60" value="建立TCP_Socket" style="text;html=1;strokeColor=none;fillColor=none;align=center;verticalAlign=middle;whiteSpace=wrap;rounded=0;" vertex="1" parent="1">
          <mxGeometry x="493.5" y="420" width="110" height="30" as="geometry" />
        </mxCell>
        <mxCell id="VDtPEl2qfjK_g-uWMviU-61" value="" style="endArrow=none;html=1;rounded=0;" edge="1" parent="1">
          <mxGeometry width="50" height="50" relative="1" as="geometry">
            <mxPoint x="451.5" y="520" as="sourcePoint" />
            <mxPoint x="651.5" y="520" as="targetPoint" />
          </mxGeometry>
        </mxCell>
        <mxCell id="VDtPEl2qfjK_g-uWMviU-62" value="" style="endArrow=none;html=1;rounded=0;" edge="1" parent="1">
          <mxGeometry width="50" height="50" relative="1" as="geometry">
            <mxPoint x="651.5" y="560" as="sourcePoint" />
            <mxPoint x="651.5" y="520" as="targetPoint" />
          </mxGeometry>
        </mxCell>
        <mxCell id="VDtPEl2qfjK_g-uWMviU-63" value="" style="endArrow=classic;html=1;rounded=0;entryX=0.634;entryY=0.003;entryDx=0;entryDy=0;entryPerimeter=0;" edge="1" parent="1" target="VDtPEl2qfjK_g-uWMviU-50">
          <mxGeometry width="50" height="50" relative="1" as="geometry">
            <mxPoint x="651.5" y="560" as="sourcePoint" />
            <mxPoint x="460" y="560" as="targetPoint" />
          </mxGeometry>
        </mxCell>
        <mxCell id="VDtPEl2qfjK_g-uWMviU-64" value="成功" style="text;html=1;strokeColor=none;fillColor=none;align=center;verticalAlign=middle;whiteSpace=wrap;rounded=0;" vertex="1" parent="1">
          <mxGeometry x="516.5" y="530" width="60" height="30" as="geometry" />
        </mxCell>
        <mxCell id="VDtPEl2qfjK_g-uWMviU-65" value="連接到Server" style="text;html=1;strokeColor=none;fillColor=none;align=center;verticalAlign=middle;whiteSpace=wrap;rounded=0;" vertex="1" parent="1">
          <mxGeometry x="502.75" y="492.5" width="91.5" height="30" as="geometry" />
        </mxCell>
        <mxCell id="VDtPEl2qfjK_g-uWMviU-66" value="" style="endArrow=classic;html=1;rounded=0;exitX=0.926;exitY=1.038;exitDx=0;exitDy=0;exitPerimeter=0;" edge="1" parent="1" source="VDtPEl2qfjK_g-uWMviU-50">
          <mxGeometry width="50" height="50" relative="1" as="geometry">
            <mxPoint x="700" y="570" as="sourcePoint" />
            <mxPoint x="160" y="620" as="targetPoint" />
          </mxGeometry>
        </mxCell>
        <mxCell id="VDtPEl2qfjK_g-uWMviU-68" value="" style="endArrow=none;html=1;rounded=0;" edge="1" parent="1">
          <mxGeometry width="50" height="50" relative="1" as="geometry">
            <mxPoint x="451.5" y="585" as="sourcePoint" />
            <mxPoint x="651.5" y="585" as="targetPoint" />
          </mxGeometry>
        </mxCell>
        <mxCell id="VDtPEl2qfjK_g-uWMviU-69" value="" style="endArrow=none;html=1;rounded=0;" edge="1" parent="1">
          <mxGeometry width="50" height="50" relative="1" as="geometry">
            <mxPoint x="651.5" y="625" as="sourcePoint" />
            <mxPoint x="651.5" y="585" as="targetPoint" />
          </mxGeometry>
        </mxCell>
        <mxCell id="VDtPEl2qfjK_g-uWMviU-70" value="" style="endArrow=classic;html=1;rounded=0;entryX=0.925;entryY=0.003;entryDx=0;entryDy=0;entryPerimeter=0;" edge="1" parent="1" target="VDtPEl2qfjK_g-uWMviU-50">
          <mxGeometry width="50" height="50" relative="1" as="geometry">
            <mxPoint x="651.5" y="625" as="sourcePoint" />
            <mxPoint x="450" y="625" as="targetPoint" />
          </mxGeometry>
        </mxCell>
        <mxCell id="VDtPEl2qfjK_g-uWMviU-71" value="成功" style="text;html=1;strokeColor=none;fillColor=none;align=center;verticalAlign=middle;whiteSpace=wrap;rounded=0;" vertex="1" parent="1">
          <mxGeometry x="516.5" y="595" width="60" height="30" as="geometry" />
        </mxCell>
        <mxCell id="VDtPEl2qfjK_g-uWMviU-72" value="輸入數字" style="text;html=1;strokeColor=none;fillColor=none;align=center;verticalAlign=middle;whiteSpace=wrap;rounded=0;" vertex="1" parent="1">
          <mxGeometry x="516.5" y="560" width="60" height="30" as="geometry" />
        </mxCell>
      </root>
    </mxGraphModel>
  </diagram>
</mxfile>
